<?xml version="1.0" encoding="UTF-8"?>
<!DOCTYPE svg  PUBLIC '-//W3C//DTD SVG 1.1//EN'  'http://www.w3.org/Graphics/SVG/1.1/DTD/svg11.dtd'>
<svg version="1.1" xmlns="http://www.w3.org/2000/svg">
<defs>
<font id="Europe" horiz-adv-x="562">
<font-face font-family="Europe" font-weight="400" ascent="763" bbox="-11 -237 1136 818" cap-height="749" descent="-237" panose-1="4 0 5 0 0 0 0 0 0 0" underline-position="-100" underline-thickness="50" unicode-range="U+0020-00BB" units-per-em="1000" x-height="524"/>
<missing-glyph/>
<glyph glyph-name="space" horiz-adv-x="238" unicode=" "/>
<glyph glyph-name="space" horiz-adv-x="238" unicode=" "/>
<glyph d="M173 101v-101h-89v101h89zM177 749l-16 -543h-65l-16 543h97z" glyph-name="exclam" horiz-adv-x="268" unicode="!"/>
<glyph d="M134 450h-65l-14 300h94zM301 450h-67l-13 300h94z" glyph-name="quotedbl" horiz-adv-x="370" unicode='"'/>
<glyph d="M435 260l-32 -222h-46l31 222h-132l-30 -222h-49l32 222h-140l7 45h139l18 126h-140l7 46h139l30 205h47l-29 -205h132l28 205h47l-29 -205h144l-7 -46h-143l-18 -126h143l-6 -45h-143zM412 431h-133l-17 -126h132z" glyph-name="numbersign" horiz-adv-x="679" unicode="#"/>
<glyph d="M314 416v264h-37q-88 0 -119 -21q-39 -29 -39 -102q0 -98 49 -124q33 -17 110 -17h36zM377 344v-286h29q108 0 143 46q25 34 25 97q0 98 -47 125q-33 18 -132 18h-18zM377 -10v-74h-63v74q-135 0 -186 18q-83 31 -96 139q-3 24 -3 50v27h83q0 -106 29 -136 q27 -28 111 -30h34h28v286q-136 0 -192 26q-85 43 -86 166q0 142 84 186q55 27 171 27h23v69h63v-69q132 0 182 -23q73 -35 81 -151q1 -17 1 -36h-83q0 89 -28 116q-27 25 -97 25h-56v-264q135 0 187 -21q82 -33 92 -149q1 -17 1 -35q0 -142 -76 -188q-56 -33 -180 -33h-24z " glyph-name="dollar" horiz-adv-x="687" unicode="$"/>
<glyph d="M193 750q108 0 138 -37q24 -29 24 -103v-97q0 -84 -32 -112q-34 -28 -130 -28q-108 0 -139 37q-24 29 -24 102v97q0 86 32 113q34 28 131 28zM193 709q-72 0 -93 -20q-21 -21 -21 -67v-129q0 -60 43 -73q21 -6 71 -6q69 0 89 15q24 19 24 69v124q0 66 -42 80q-22 7 -71 7 zM730 750l-508 -750h-51l505 750h54zM709 377q108 0 138 -37q24 -29 24 -103v-97q0 -84 -32 -112q-34 -28 -130 -28q-108 0 -139 37q-24 29 -24 102v97q0 86 32 113q34 28 131 28zM709 336q-72 0 -93 -20q-21 -21 -21 -67v-129q0 -60 43 -73q21 -6 71 -6q69 0 89 15 q24 19 24 69v124q0 66 -42 80q-22 7 -71 7z" glyph-name="percent" horiz-adv-x="912" unicode="%"/>
<glyph d="M579 330h83v-65q0 -51 -9 -100l131 -107l-46 -58l-110 91q-40 -83 -165 -94q-30 -2 -81 -2q-146 0 -197 15q-83 25 -107 110q-14 48 -14 118q0 134 74 171q28 14 78 21q-48 41 -58 73q-8 25 -8 67q0 120 82 153q46 18 140 18q121 0 165 -33q52 -40 52 -149v-41h-83v27 q0 84 -27 105q-22 18 -101 18h-18q-76 0 -100 -19q-27 -21 -27 -67q0 -55 32 -89q12 -13 31 -29l281 -236q2 22 2 102zM269 384q-80 -17 -101 -43q-21 -28 -21 -102q0 -103 24 -135q27 -36 118 -39h23h73q134 0 167 54q7 11 10 23z" glyph-name="ampersand" horiz-adv-x="786" unicode="&amp;"/>
<glyph d="M136 450h-68l-13 299h95z" glyph-name="quotesingle" horiz-adv-x="205" unicode="'"/>
<glyph d="M258 756v-70q-83 0 -103 -65q-10 -34 -10 -112v-414q0 -88 26 -117q25 -26 71 -26h16v-70h-23q-125 0 -158 99q-15 49 -15 145v351q0 134 19 185q33 85 148 93q14 1 29 1z" glyph-name="parenleft" horiz-adv-x="311" unicode="("/>
<glyph d="M62 756q133 0 172 -83q24 -51 24 -183v-13v-351q0 -130 -32 -181q-41 -63 -141 -63h-23v70h16q77 0 92 72q5 25 5 70v416q0 101 -20 135q-26 41 -93 41v70z" glyph-name="parenright" horiz-adv-x="311" unicode=")"/>
<glyph d="M543 588l-153 -55l93 -132l-45 -32l-93 136l-100 -136l-44 32l96 132l-152 58l18 53l154 -56v162h55v-162l153 57z" glyph-name="asterisk" horiz-adv-x="687" unicode="*"/>
<glyph d="M26 405h230v217h48v-217h232v-47h-232v-217h-48v217h-230v47z" glyph-name="plus" unicode="+"/>
<glyph d="M159 101v-110q0 -75 -33 -94q-18 -9 -44 -9q-12 0 -22 2v42q40 2 47 31q2 10 2 22v15h-39v101h89z" glyph-name="comma" horiz-adv-x="227" unicode=","/>
<glyph d="M156 101v-101h-89v101h89z" glyph-name="period" horiz-adv-x="223" unicode="."/>
<glyph d="M648 749l-579 -859h-61l577 859h63z" glyph-name="slash" horiz-adv-x="726" unicode="/"/>
<glyph d="M660 377q0 -229 -77 -312q-65 -69 -220 -73h-20q-162 0 -231 64q-81 75 -86 288v33q0 225 74 306q61 68 209 73q17 1 34 1q161 0 228 -60q81 -70 88 -272q1 -23 1 -48zM577 377q0 178 -38 238q-35 57 -130 66q-29 3 -66 3q-126 0 -173 -40q-50 -44 -59 -175 q-2 -39 -2 -91q0 -180 39 -243q38 -59 139 -68q25 -2 56 -2q128 0 176 48q50 50 57 198q1 30 1 66z" glyph-name="zero" horiz-adv-x="687" unicode="0"/>
<glyph d="M442 749v-749h-80v685l-192 -211l-53 49l207 226h118z" glyph-name="one" horiz-adv-x="687" unicode="1"/>
<glyph d="M601 73v-73h-540v140q0 129 86 174q54 27 180 38q124 11 159 44q30 29 32 109v14q0 109 -63 143q-42 22 -119 22q-139 0 -176 -63q-19 -34 -19 -96v-31h-80q0 150 57 206q60 57 220 57q170 0 227 -85q36 -55 36 -154q0 -130 -50 -178q-43 -41 -164 -57q-18 -2 -38 -4 q-137 -15 -174 -44q-33 -34 -34 -103v-59h460z" glyph-name="two" horiz-adv-x="689" unicode="2"/>
<glyph d="M274 348v73h96q92 0 118 21q26 22 28 99v17q0 84 -70 110q-43 16 -113 16q-121 0 -157 -52q-24 -36 -24 -112h-80q0 146 75 197q60 40 185 40q217 0 257 -126q10 -32 10 -73q0 -113 -51 -149q-27 -17 -71 -24q99 -13 124 -81q12 -34 12 -88q0 -128 -54 -175 q-64 -48 -225 -49q-153 0 -213 47q-61 50 -61 162v44h80v-44q0 -80 39 -108q41 -28 154 -28q129 0 165 32q30 26 32 105v14q0 91 -56 117q-34 15 -96 15h-104z" glyph-name="three" horiz-adv-x="689" unicode="3"/>
<glyph d="M532 749v-505h113v-73h-113v-171h-80v171h-422v101l376 477h126zM452 244v450l-352 -450h352z" glyph-name="four" horiz-adv-x="689" unicode="4"/>
<glyph d="M85 370v378h504v-73h-424v-224q44 58 164 62h32q161 0 216 -76q39 -55 39 -160q0 -157 -46 -216q-50 -63 -189 -68q-17 -1 -34 -1q-137 0 -190 24q-76 36 -86 155q-2 21 -2 44h83q0 -86 23 -113q28 -33 129 -36q20 -1 43 -1q114 0 152 40q34 38 34 123q0 126 -32 168 q-36 44 -139 44q-138 0 -171 -25q-18 -14 -26 -45h-80z" glyph-name="five" horiz-adv-x="687" unicode="5"/>
<glyph d="M348 458q160 0 217 -68q45 -54 45 -164q0 -145 -80 -195q-63 -39 -196 -39q-142 0 -196 34q-65 40 -77 162q-4 40 -4 90v108q0 201 37 273q35 71 131 89q48 9 123 9q137 0 190 -28q72 -39 72 -150v-23h-83v18q0 70 -37 91q-34 19 -142 19q-119 0 -160 -36 q-45 -39 -48 -162v-18v-82q18 40 53 54q47 18 155 18zM140 226q0 -102 50 -135q42 -26 144 -26q123 0 162 45q31 37 31 115q0 101 -49 133q-42 27 -144 27q-122 0 -161 -40q-33 -36 -33 -119z" glyph-name="six" horiz-adv-x="689" unicode="6"/>
<glyph d="M600 749v-106l-363 -643h-100l395 676h-478v73h546z" glyph-name="seven" horiz-adv-x="689" unicode="7"/>
<glyph d="M337 351q-130 0 -168 -39q-28 -31 -28 -105q0 -83 37 -112q41 -30 160 -30q128 0 166 35q31 31 31 110q0 82 -39 111q-42 30 -159 30zM337 683q-129 0 -163 -41q-22 -27 -22 -86q0 -77 27 -103q38 -30 158 -31q130 0 163 36q24 26 24 97q0 74 -37 100q-42 28 -150 28z M187 390q-88 18 -109 82q-9 30 -9 83q0 119 67 162q61 39 204 39q168 0 223 -56q44 -46 44 -144q0 -89 -35 -125q-29 -29 -85 -41q107 -19 126 -117q5 -26 5 -58q0 -120 -45 -166q-54 -55 -220 -57h-16q-172 0 -230 54q-48 53 -49 173q0 98 47 136q30 25 82 35z" glyph-name="eight" horiz-adv-x="689" unicode="8"/>
<glyph d="M324 289q-160 0 -217 68q-45 54 -45 164q0 147 82 197q63 38 194 38q146 0 202 -39q70 -47 75 -191v-24v-140q0 -200 -36 -272q-35 -71 -129 -89q-49 -9 -126 -9q-137 0 -189 27q-73 39 -73 150v23h83v-20q0 -68 37 -88q34 -19 142 -19q119 0 160 34q45 38 48 157v23v83 q-18 -40 -53 -54q-47 -19 -155 -19zM532 522q0 102 -50 135q-42 26 -144 26q-123 0 -162 -45q-31 -37 -31 -115q0 -101 49 -134q42 -27 144 -27q123 0 162 42q32 35 32 118z" glyph-name="nine" horiz-adv-x="689" unicode="9"/>
<glyph d="M156 101v-101h-89v101h89zM156 522v-101h-89v101h89z" glyph-name="colon" horiz-adv-x="223" unicode=":"/>
<glyph d="M156 101v-110q0 -75 -33 -94q-18 -9 -44 -9q-12 0 -22 2v42q40 2 47 31q2 10 2 22v15h-39v101h89zM156 523v-101h-89v101h89z" glyph-name="semicolon" horiz-adv-x="224" unicode=";"/>
<glyph d="M523 644v-88l-393 -180l393 -181v-87l-487 230v76z" glyph-name="less" horiz-adv-x="561" unicode="&lt;"/>
<glyph d="M27 486h511v-47h-511v47zM27 325h511v-47h-511v47z" glyph-name="equal" unicode="="/>
<glyph d="M38 108v87l393 181l-393 181v87l487 -231v-75z" glyph-name="greater" unicode="&gt;"/>
<glyph d="M301 216h-89q0 94 34 130q26 28 88 49q76 26 96 56q19 28 19 93q0 90 -47 117q-35 20 -113 20q-105 0 -130 -31q-18 -23 -18 -84v-50h-80q0 135 36 182q39 51 154 55q17 1 35 1q134 0 184 -37q59 -45 59 -164q0 -143 -89 -196q-25 -15 -64 -28q-60 -20 -71 -56 q-4 -14 -4 -39v-18zM301 101v-101h-89v101h89z" glyph-name="question" horiz-adv-x="584" unicode="?"/>
<glyph d="M461 531h55v-258q0 -60 25 -72q9 -4 19 -4q28 0 39 24q17 39 17 163q0 129 -18 168q-21 44 -89 55q-46 7 -168 7q-141 0 -185 -23q-45 -24 -56 -97q-6 -45 -6 -146q0 -160 24 -213q26 -54 101 -68q45 -8 129 -8q166 0 194 20q9 7 12 17l39 -28q-19 -35 -58 -45 q-43 -11 -170 -11q-144 0 -197 19q-74 26 -100 113q-21 72 -21 205q0 178 41 239q38 56 139 68q44 5 115 5q180 0 243 -38q59 -35 72 -132q5 -41 5 -104q0 -187 -47 -223q-19 -14 -52 -14q-66 0 -86 45q-3 8 -5 16q-32 -60 -135 -61q-105 0 -131 76q-13 39 -13 116 q0 112 36 151q36 38 116 38q81 0 111 -41q3 -4 5 -8v49zM461 372q0 79 -41 100q-23 12 -64 12q-66 0 -84 -24q-20 -27 -20 -118q0 -104 25 -128q19 -17 66 -17q83 0 104 36q14 25 14 90v49z" glyph-name="at" horiz-adv-x="707" unicode="@"/>
<glyph d="M26 0l273 749h121l279 -749h-89l-56 154h-378l-60 -154h-90zM527 227l-166 460l-165 -460h331z" glyph-name="A" horiz-adv-x="720" unicode="A"/>
<glyph d="M153 345v-272h231q105 0 138 25q37 29 37 113q0 90 -31 114q-26 20 -109 20h-266zM153 676v-258h238q97 0 125 42q21 32 21 97q0 80 -35 103q-26 16 -80 16h-269zM70 0v749h361q133 0 170 -80q19 -41 19 -104q0 -90 -26 -126q-22 -30 -67 -46q81 -22 102 -76 q13 -34 13 -100q0 -164 -103 -203q-37 -14 -87 -14h-382z" glyph-name="B" horiz-adv-x="691" unicode="B"/>
<glyph d="M565 250h81q0 -143 -56 -197q-69 -60 -241 -61q-149 0 -210 47q-71 55 -85 215q-4 51 -4 118q0 221 57 301q50 70 173 81q31 3 69 3q175 0 233 -63q44 -47 53 -165q0 -9 1 -17h-81q-10 95 -35 126q-33 41 -138 45q-16 1 -33 1q-115 0 -159 -44q-50 -50 -56 -205 q-1 -29 -1 -63q0 -184 40 -245q36 -53 130 -60q21 -2 46 -2q133 0 175 38q40 43 41 147z" glyph-name="C" horiz-adv-x="671" unicode="C"/>
<glyph d="M70 0v749h346q182 0 239 -131q34 -80 34 -244q0 -195 -50 -278q-60 -96 -201 -96h-368zM153 676v-603h244q117 0 163 67q46 69 46 234q0 199 -70 261q-48 41 -142 41h-241z" glyph-name="D" horiz-adv-x="732" unicode="D"/>
<glyph d="M153 418h381v-73h-381v-272h397v-73h-480v749h482v-73h-399v-258z" glyph-name="E" horiz-adv-x="596" unicode="E"/>
<glyph d="M153 418h365v-73h-365v-345h-83v749h457v-73h-374v-258z" glyph-name="F" horiz-adv-x="545" unicode="F"/>
<glyph d="M665 529h-83q-6 86 -36 116q-36 36 -158 39h-30q-120 0 -165 -44q-52 -50 -59 -202q-1 -30 -1 -66q0 -184 43 -245q37 -54 136 -61q21 -1 46 -1q134 0 180 49q43 50 44 181v26h-240v73h323v-87q0 -178 -55 -243q-52 -62 -190 -70q-28 -2 -61 -2q-167 0 -232 63t-75 231 q-2 39 -2 86q0 210 55 292q55 80 196 91q27 2 57 2q187 0 249 -57q44 -40 55 -141q2 -14 3 -30z" glyph-name="G" horiz-adv-x="695" unicode="G"/>
<glyph d="M153 418h438v331h83v-749h-83v345h-438v-345h-83v749h83v-331z" glyph-name="H" horiz-adv-x="744" unicode="H"/>
<glyph d="M153 749v-749h-83v749h83z" glyph-name="I" horiz-adv-x="223" unicode="I"/>
<glyph d="M408 749h83v-543q0 -137 -83 -184q-54 -30 -147 -30q-152 0 -199 66q-33 47 -33 148v67h83v-55q0 -97 35 -126q33 -27 114 -27q108 0 136 74q11 33 11 80v530z" glyph-name="J" horiz-adv-x="561" unicode="J"/>
<glyph d="M153 749v-331h74l307 331h111l-344 -362l384 -387h-115l-343 345h-74v-345h-83v749h83z" glyph-name="K" horiz-adv-x="696" unicode="K"/>
<glyph d="M153 749v-676h379v-73h-462v749h83z" glyph-name="L" horiz-adv-x="553" unicode="L"/>
<glyph d="M207 749l266 -642l266 642h137v-749h-83v689l-283 -689h-72l-285 682v-682h-83v749h137z" glyph-name="M" horiz-adv-x="946" unicode="M"/>
<glyph d="M70 749h132l422 -684v684h83v-749h-132l-422 677v-677h-83v749z" glyph-name="N" horiz-adv-x="777" unicode="N"/>
<glyph d="M50 374q0 211 47 289q43 71 155 87q47 7 114 7q159 0 222 -45q67 -49 83 -187q7 -61 7 -151q0 -210 -46 -287q-42 -72 -153 -88q-47 -7 -115 -7q-160 0 -223 46q-68 49 -84 188q-7 60 -7 148zM133 374q0 -175 27 -232q26 -57 103 -70q39 -7 102 -7q126 0 170 34 q46 35 56 143q4 49 4 132q0 175 -25 232t-99 71q-39 7 -106 7q-127 0 -171 -33q-46 -34 -56 -138q-5 -50 -5 -139z" glyph-name="O" horiz-adv-x="729" unicode="O"/>
<glyph d="M153 293v-293h-83v749h357q134 0 175 -82q23 -49 23 -131q0 -143 -58 -195q-56 -48 -191 -48h-223zM153 676v-310h199q114 0 153 35q37 36 37 124q0 95 -31 124q-28 27 -96 27h-262z" glyph-name="P" horiz-adv-x="666" unicode="P"/>
<glyph d="M726 91l-34 -57l-56 38q-53 -63 -155 -75q-42 -5 -122 -5q-160 0 -224 46q-68 49 -84 188q-7 60 -7 148q0 213 48 291q45 71 158 86q45 6 108 6q161 0 225 -44q69 -48 85 -183q8 -63 8 -156q0 -195 -13 -240zM372 326l217 -143q4 28 4 191q0 177 -29 235q-28 56 -109 69 q-37 6 -98 6q-126 0 -170 -33q-46 -35 -56 -142q-4 -50 -4 -135q0 -175 26 -232q27 -57 102 -70q39 -7 102 -7q130 0 172 20q23 12 38 31l-233 151z" glyph-name="Q" horiz-adv-x="743" unicode="Q"/>
<glyph d="M153 303v-303h-83v749h356q146 0 191 -84q26 -48 26 -128q0 -127 -57 -173q-28 -22 -70 -31q116 -10 117 -143v-190h-83v170q0 104 -80 126q-27 7 -64 7h-253zM153 676v-300h245q106 0 139 48q23 34 23 100q0 109 -57 138q-29 14 -77 14h-273z" glyph-name="R" horiz-adv-x="699" unicode="R"/>
<glyph d="M35 231h83q0 -98 22 -128q25 -32 109 -37q28 -1 70 -1q136 0 172 42q24 29 24 101t-29 97q-34 29 -162 34h-3q-159 5 -218 51q-62 48 -62 158q0 134 95 179q64 30 183 30q141 0 196 -36q70 -48 70 -179h-83q0 84 -33 112q-38 30 -150 30q-134 0 -170 -39q-25 -28 -25 -92 q0 -71 37 -97q43 -30 197 -38h1h1h1q139 -7 189 -56q48 -47 48 -147q0 -132 -63 -179q-61 -44 -216 -44q-145 0 -201 27q-81 47 -83 177v35z" glyph-name="S" horiz-adv-x="629" unicode="S"/>
<glyph d="M340 676v-676h-83v676h-242v73h567v-73h-242z" glyph-name="T" horiz-adv-x="601" unicode="T"/>
<glyph d="M75 749h83v-525q0 -93 29 -123q31 -32 137 -35q20 -1 44 -1q131 0 170 25q38 25 42 101q1 15 1 33v525h83v-527q0 -148 -71 -194q-50 -34 -180 -36h-45q-140 0 -193 21q-81 33 -96 143q-4 30 -4 66v527z" glyph-name="U" horiz-adv-x="736" unicode="U"/>
<glyph d="M552 749h91l-265 -749h-122l-267 749h90l239 -682z" glyph-name="V" horiz-adv-x="643" unicode="V"/>
<glyph d="M1136 749l-237 -749h-128l-196 674l-202 -674h-125l-231 749h88l204 -684l203 684h125l200 -684l210 684h89z" glyph-name="W" horiz-adv-x="1151" unicode="W"/>
<glyph d="M136 749l212 -320l212 320h100l-246 -361l268 -388h-102l-232 344l-232 -344h-102l268 388l-246 361h100z" glyph-name="X" horiz-adv-x="686" unicode="X"/>
<glyph d="M20 749h93l227 -358l226 358h95l-283 -436v-313h-83v313z" glyph-name="Y" horiz-adv-x="673" unicode="Y"/>
<glyph d="M601 749v-80l-473 -596h483v-73h-584v74l469 602h-454v73h559z" glyph-name="Z" horiz-adv-x="637" unicode="Z"/>
<glyph d="M61 749h192v-65h-109v-731h109v-65h-192v861z" glyph-name="bracketleft" horiz-adv-x="311" unicode="["/>
<glyph d="M79 749h63l577 -859h-61z" glyph-name="backslash" horiz-adv-x="726" unicode="\"/>
<glyph d="M250 -112h-192v65h109v731h-109v65h192v-861z" glyph-name="bracketright" horiz-adv-x="311" unicode="]"/>
<glyph d="M118 420h-82l196 330h99l196 -330h-83l-163 271z" glyph-name="asciicircum" unicode="^"/>
<glyph d="M0 -81h562v-57h-562v57z" glyph-name="underscore" unicode="_"/>
<glyph d="M227 742l148 -113l-26 -41l-161 99z" glyph-name="grave" unicode="`"/>
<glyph d="M420 155q0 66 -31 85q-32 18 -143 18q-84 0 -107 -33q-14 -21 -14 -57q0 -79 45 -99q27 -12 77 -12q103 0 137 20q36 24 36 78zM143 382h-80q0 110 76 138q41 14 132 14q126 0 172 -33q57 -41 57 -151v-350h-75l3 68q-29 -52 -70 -65q-33 -11 -106 -11q-122 0 -166 41 q-41 40 -41 127q0 114 84 144q41 15 116 15q118 0 152 -30q13 -12 23 -31v75q0 88 -24 112q-21 22 -99 24h-29q-88 0 -109 -21q-16 -17 -16 -51v-15z" glyph-name="a" horiz-adv-x="565" unicode="a"/>
<glyph d="M289 469q-96 0 -124 -46q-19 -33 -20 -137v-23q0 -112 16 -148q23 -52 106 -57q12 -1 25 -1q98 0 127 56q22 43 22 150q0 121 -29 161q-33 45 -123 45zM145 749v-285q34 47 82 61q35 9 89 9q141 0 182 -99q23 -57 23 -175q0 -142 -36 -198q-48 -70 -177 -70 q-89 0 -127 28q-21 17 -41 47l5 -67h-80v749h80z" glyph-name="b" horiz-adv-x="566" unicode="b"/>
<glyph d="M419 192h77q-7 -124 -62 -165q-47 -35 -164 -35q-131 0 -179 60q-46 59 -46 211q0 162 52 219q49 52 171 52q144 0 190 -58q29 -39 29 -104v-17h-77q0 69 -28 91q-30 23 -114 23t-111 -32q-31 -35 -32 -160v-11q0 -136 35 -176q31 -33 110 -33q93 0 120 29q24 26 29 106z " glyph-name="c" horiz-adv-x="537" unicode="c"/>
<glyph d="M269 469q-96 0 -124 -46q-19 -33 -20 -137v-23q0 -112 16 -148q23 -52 106 -57q12 -1 25 -1q98 0 127 56q22 43 22 150q0 121 -29 161q-33 45 -123 45zM421 464v285h80v-749h-78l3 67q-35 -53 -80 -66q-32 -9 -88 -9q-141 0 -184 83q-29 56 -29 185q0 144 36 202 q47 72 168 72q101 0 145 -39q13 -12 27 -31z" glyph-name="d" horiz-adv-x="566" unicode="d"/>
<glyph d="M501 246h-376q0 -119 29 -155q33 -33 120 -34q104 0 129 24q18 18 18 65v16h80q0 -113 -68 -147q-47 -23 -159 -23q-130 0 -178 53q-51 58 -51 220q0 173 72 229q52 40 156 40q142 0 191 -75q37 -58 37 -170v-43zM125 311h296q0 103 -44 135q-34 23 -104 23 q-97 0 -127 -48q-21 -36 -21 -110z" glyph-name="e" horiz-adv-x="551" unicode="e"/>
<glyph d="M302 525v-65h-137v-460h-80v460h-80v65h80v78q0 111 70 141q37 15 98 15q24 0 46 -4v-65q-26 4 -52 4q-69 0 -80 -57q-2 -13 -2 -28v-84h137z" glyph-name="f" horiz-adv-x="295" unicode="f"/>
<glyph d="M269 469q-96 0 -124 -46q-19 -33 -20 -137v-23q0 -112 16 -148q23 -52 106 -57q12 -1 25 -1q98 0 127 56q22 43 22 150q0 121 -29 161q-33 45 -123 45zM425 456l-4 68h76v-558q0 -121 -51 -162q-48 -39 -178 -39q-117 0 -158 31q-48 37 -48 142h74q3 -76 36 -95 q25 -13 86 -13q96 0 127 22q36 27 36 107v105q-34 -67 -148 -72h-24q-141 0 -181 96q-23 54 -23 153q0 142 25 198q43 94 184 95q121 -1 171 -78z" glyph-name="g" unicode="g"/>
<glyph d="M145 749v-284q33 60 120 67q19 1 47 1q122 0 163 -49q35 -44 35 -144v-340h-80v355q0 79 -39 100q-27 13 -87 13q-104 0 -136 -47q-23 -36 -23 -122v-299h-80v749h80z" glyph-name="h" horiz-adv-x="575" unicode="h"/>
<glyph d="M145 749v-86h-80v86h80zM145 524v-524h-80v524h80z" glyph-name="i" horiz-adv-x="210" unicode="i"/>
<glyph d="M145 750v-86h-80v86h80zM65 524h80v-573q0 -127 -75 -150q-20 -5 -42 -5t-38 5v55q6 -3 11 -3q53 0 61 49q3 16 3 49v573z" glyph-name="j" horiz-adv-x="210" unicode="j"/>
<glyph d="M145 749v-438h31l189 213h96l-223 -241l264 -283h-104l-222 246h-31v-246h-80v749h80z" glyph-name="k" horiz-adv-x="506" unicode="k"/>
<glyph d="M145 749v-749h-80v749h80z" glyph-name="l" horiz-adv-x="210" unicode="l"/>
<glyph d="M145 524v-70q53 80 168 80q137 -1 167 -89q51 89 179 89q127 0 165 -70q23 -43 23 -117v-347h-80v352q0 79 -36 101q-26 16 -82 16q-151 -4 -153 -122v-347h-80v346q0 80 -30 103q-27 20 -93 20q-103 0 -131 -63q-17 -37 -17 -105v-301h-80v524h80z" glyph-name="m" horiz-adv-x="912" unicode="m"/>
<glyph d="M146 524v-59q33 60 120 67q19 1 47 1q122 0 163 -49q35 -44 35 -144v-340h-80v355q0 79 -39 100q-27 13 -87 13q-104 0 -136 -47q-23 -36 -23 -122v-299h-80v524h80z" glyph-name="n" horiz-adv-x="576" unicode="n"/>
<glyph d="M511 262q0 -165 -53 -221q-50 -51 -178 -51t-176 50q-54 57 -54 221q0 165 53 221q50 51 177 51q129 0 177 -50q54 -58 54 -221zM431 262q0 133 -34 172q-31 34 -117 34t-116 -33q-34 -41 -34 -173q0 -135 35 -174q30 -33 115 -33q86 0 116 32q34 44 35 175z" glyph-name="o" unicode="o"/>
<glyph d="M289 469q-96 0 -124 -46q-19 -33 -20 -137v-23q0 -112 16 -148q23 -52 106 -57q12 -1 25 -1q98 0 127 56q22 43 22 150q0 121 -29 161q-33 45 -123 45zM145 60v-285h-80v749h80v-60q52 70 162 70q141 0 185 -83q29 -56 29 -184q0 -147 -40 -206q-48 -69 -166 -69 q-105 0 -149 42q-12 12 -21 26z" glyph-name="p" horiz-adv-x="566" unicode="p"/>
<glyph d="M269 469q-96 0 -124 -46q-19 -33 -20 -137v-23q0 -112 16 -148q23 -52 106 -57q12 -1 25 -1q98 0 127 56q22 43 22 150q0 121 -29 161q-33 45 -123 45zM421 524h80v-749h-80v285q-40 -64 -149 -68h-23q-140 0 -181 96q-23 56 -23 175q0 145 38 201q48 70 176 70 q111 -1 162 -69v59z" glyph-name="q" horiz-adv-x="566" unicode="q"/>
<glyph d="M145 524v-52q46 65 139 65q129 0 149 -106q4 -23 4 -50v-31h-80v39q0 64 -43 77q-19 6 -46 6q-122 -2 -123 -123v-349h-80v524h80z" glyph-name="r" horiz-adv-x="444" unicode="r"/>
<glyph d="M50 167h80q0 -74 37 -95q28 -15 102 -15q96 0 121 22q23 20 23 73q0 52 -57 70q-31 10 -83 14q-121 9 -166 36q-56 35 -57 113q0 95 65 126q48 23 142 23q139 0 186 -37q37 -31 37 -88v-19h-80q0 49 -31 64t-104 15q-98 0 -121 -25q-14 -17 -14 -51q0 -49 22 -65 q28 -18 129 -23q143 -7 186 -66q26 -36 26 -92q0 -101 -66 -132q-48 -23 -154 -23q-128 0 -173 34q-50 39 -50 141z" glyph-name="s" horiz-adv-x="537" unicode="s"/>
<glyph d="M357 525v-65h-202v-321q0 -58 23 -72q17 -10 51 -10q54 0 67 27q7 18 7 55v46h75q0 -115 -24 -151q-35 -41 -126 -42q-101 0 -132 45q-21 34 -21 102v321h-69v65h69v126h80v-126h202z" glyph-name="t" horiz-adv-x="388" unicode="t"/>
<glyph d="M65 524h80v-348q0 -79 32 -102q27 -18 87 -18q103 0 134 47q23 35 23 112v309h80v-524h-74v69q-43 -65 -123 -75q-24 -3 -57 -3q-121 0 -159 60q-23 38 -23 106v367z" glyph-name="u" horiz-adv-x="566" unicode="u"/>
<glyph d="M383 524h85l-175 -524h-110l-175 524h85l144 -465z" glyph-name="v" horiz-adv-x="476" unicode="v"/>
<glyph d="M757 524l-147 -524h-114l-113 469l-113 -469h-116l-141 524h79l120 -471l115 471h114l114 -471l120 471h82z" glyph-name="w" horiz-adv-x="763" unicode="w"/>
<glyph d="M442 524l-167 -250l187 -274h-96l-135 212l-135 -212h-96l187 274l-167 250h92l119 -192l119 192h92z" glyph-name="x" horiz-adv-x="476" unicode="x"/>
<glyph d="M373 524h81l-161 -594q-33 -123 -89 -153q-28 -14 -70 -14q-26 0 -45 6v64q19 -5 30 -5q43 0 62 25q21 30 53 147h-34l-191 524h80l164 -466z" glyph-name="y" horiz-adv-x="469" unicode="y"/>
<glyph d="M50 524h379v-71l-313 -388h313v-65h-406v74l313 385h-286v65z" glyph-name="z" horiz-adv-x="453" unicode="z"/>
<glyph d="M154 244v67q65 19 65 104v196q0 105 70 135q41 17 120 17v-73q-78 0 -98 -47q-9 -24 -9 -61v-180q0 -71 -27 -101q-14 -14 -34 -25q57 -32 61 -112v-18v-175q0 -76 38 -96q24 -12 69 -12v-73q-106 0 -143 27q-47 35 -47 140v179q0 70 -35 94q-13 9 -30 14z" glyph-name="braceleft" horiz-adv-x="561" unicode="{"/>
<glyph d="M322 -186h-83v935h83v-935z" glyph-name="bar" horiz-adv-x="561" unicode="|"/>
<glyph d="M408 308v-66q-64 -21 -65 -104v-196q0 -104 -67 -134q-42 -18 -123 -18v73q75 4 95 42q12 24 12 66v180q0 72 28 102q13 14 32 24q-55 30 -59 105q-1 12 -1 25v175q0 77 -42 97q-23 11 -65 11v73q102 0 136 -20q52 -29 54 -135v-12v-179q0 -72 38 -97q12 -7 27 -12z" glyph-name="braceright" horiz-adv-x="561" unicode="}"/>
<glyph d="M57 293l-47 37q61 125 154 126q41 0 113 -39t111 -42q7 -1 13 -1q55 1 101 84l47 -37q-66 -119 -155 -125q-42 0 -114 38q-76 38 -112 40q-60 0 -102 -67q-5 -7 -9 -14z" glyph-name="asciitilde" horiz-adv-x="561" unicode="~"/>
<glyph d="M134 543l38 38l50 -50q60 43 139 43q79 -1 135 -43l51 51l38 -36l-49 -49q40 -51 40 -131q-1 -83 -42 -134l50 -50l-38 -38l-50 50q-59 -43 -141 -43q-69 1 -133 43l-51 -51l-38 36l49 49q-40 54 -40 129q1 83 42 136zM358 501q-71 0 -111 -55q-25 -35 -25 -78 q0 -93 70 -129q30 -15 66 -15q73 0 113 57q25 37 25 85q0 69 -57 110q-37 25 -81 25z" glyph-name="currency" horiz-adv-x="720" unicode="¤"/>
<glyph d="M319 419h-80v330h80v-330zM319 -50h-80v330h80v-330z" glyph-name="brokenbar" horiz-adv-x="556" unicode="¦"/>
<glyph d="M440 352l-162 47q-41 13 -55 13q-65 -3 -66 -98q0 -59 26 -79q17 -12 57 -23l169 -47q38 -10 53 -10q62 0 67 87q1 13 1 28q0 48 -54 70q-15 6 -36 12zM586 559h-73q0 81 -26 104q-26 24 -120 25h-20q-112 0 -139 -22q-21 -20 -21 -78q0 -59 26 -80q20 -16 76 -33 l167 -52q84 -26 107 -45q37 -33 37 -116q0 -88 -49 -121q-10 -7 -21 -12q58 -26 67 -89q3 -21 3 -61q0 -109 -45 -148q-48 -42 -194 -43h-14q-133 0 -180 22q-65 29 -75 128q-3 26 -3 56h75v-32q0 -66 35 -86q34 -18 148 -18q128 0 162 39q21 24 21 68q0 67 -24 88 q-18 15 -80 31l-230 61q-77 21 -99 74q-13 33 -13 88q0 84 40 112q19 13 45 19q-56 44 -58 141q0 109 47 145q41 31 166 33h23q124 0 166 -19q58 -26 69 -114q4 -29 4 -65z" glyph-name="section" horiz-adv-x="687" unicode="§"/>
<glyph d="M647 332q-9 -105 -93 -155q-50 -30 -112 -30q-112 0 -173 86q-41 60 -41 140q0 113 74 180q58 52 141 52q94 0 152 -59q40 -40 46 -95h-47q-15 70 -90 95q-30 10 -62 10q-91 0 -134 -83q-22 -45 -22 -100q0 -96 62 -145q40 -32 94 -32q96 0 138 72q16 29 21 64h46z M440 761q151 0 262 -104q109 -101 122 -247q2 -18 2 -36q0 -150 -103 -262q-100 -110 -246 -124q-19 -2 -37 -2q-150 0 -262 103q-109 102 -123 248q-2 19 -2 37q0 151 103 263q102 109 249 122q18 2 35 2zM440 717q-139 0 -238 -98q-98 -97 -102 -235v-10q0 -138 95 -238 q95 -101 232 -106h13q138 0 237 99q97 96 102 232v13q0 138 -95 238t-232 105h-12z" glyph-name="copyright" horiz-adv-x="879" unicode="©"/>
<glyph d="M191 575l58 -35l-118 -251l132 -253l-56 -36l-150 289zM376 575l57 -35l-118 -251l131 -253l-54 -36l-152 289z" glyph-name="guillemotleft" horiz-adv-x="503" unicode="«"/>
<glyph d="M476 155v203h-440v47h487v-250h-47z" glyph-name="logicalnot" horiz-adv-x="561" unicode="¬"/>
<glyph d="M327 332v-182h-51v455h217q91 0 116 -51q14 -29 14 -80q0 -69 -21 -93q-18 -19 -54 -28q74 -9 75 -88v-115h-49v105q0 65 -61 75q-14 2 -30 2h-156zM327 560v-185h149q69 0 87 31q11 19 11 54q0 65 -18 82q-18 18 -61 18h-168zM440 761q151 0 262 -104q109 -101 122 -247 q2 -18 2 -36q0 -150 -103 -262q-100 -110 -246 -124q-19 -2 -37 -2q-150 0 -262 103q-109 102 -123 248q-2 19 -2 37q0 151 103 263q102 109 249 122q18 2 35 2zM440 717q-139 0 -238 -98q-98 -97 -102 -235v-10q0 -138 95 -238q95 -101 232 -106h13q138 0 237 99 q97 96 102 232v13q0 138 -95 238t-232 105h-12z" glyph-name="registered" horiz-adv-x="879" unicode="®"/>
<glyph d="M440 586q0 -77 -62 -125q-44 -34 -97 -34q-72 0 -122 58q-37 44 -37 98q0 80 60 129q44 34 99 34q76 0 124 -62q35 -44 35 -98zM398 586q0 61 -50 97q-31 22 -67 22q-60 0 -95 -51q-22 -32 -22 -69q0 -59 49 -95q31 -22 67 -22q60 0 96 50q22 32 22 68z" glyph-name="degree" unicode="°"/>
<glyph d="M26 548h230v217h47v-217h232v-47h-232v-213h-47v213h-230v47zM26 238h509v-47h-509v47z" glyph-name="plusminus" unicode="±"/>
<glyph d="M627 -210h-76v889h-89v-889h-76v504h-118q-171 0 -222 56q-37 40 -39 141v25q0 124 29 168q35 52 144 62q38 3 88 3h359v-959zM386 364v315h-169q-81 0 -105 -28q-25 -30 -25 -128q0 -99 40 -131q38 -28 134 -28h125z" glyph-name="paragraph" horiz-adv-x="689" unicode="¶"/>
<glyph d="M312 575l134 -286l-151 -289l-55 36l131 253l-118 251zM127 575l136 -286l-153 -289l-53 36l130 253l-118 251z" glyph-name="guillemotright" horiz-adv-x="503" unicode="»"/>
</font>
</defs>
</svg>
